<?xml version="1.0" encoding="utf-8"?>
<!-- Generator: Adobe Illustrator 24.0.2, SVG Export Plug-In . SVG Version: 6.00 Build 0)  -->
<svg version="1.1" id="Layer_1" xmlns="http://www.w3.org/2000/svg" xmlns:xlink="http://www.w3.org/1999/xlink" x="0px" y="0px"
	 viewBox="0 0 292 58" style="enable-background:new 0 0 292 58;" xml:space="preserve">
<style type="text/css">
	.st0{fill:#F04C24;}
	.st1{fill-rule:evenodd;clip-rule:evenodd;fill:#F04C24;}
</style>
<title>logo</title>
<g>
	<g>
		<path class="st0" d="M150.2,56.8l2.5-20.4L164.8,51l1.6-13.2h2.9L166.9,58l-12.1-14.5l-1.6,13.4H150.2z"/>
		<path class="st0" d="M184.2,40.5h-7.6l-0.6,4.8h7.4l-0.3,2.8h-7.4l-0.7,6h7.6l-0.3,2.8h-10.5l2.3-19.1h10.5L184.2,40.5z"/>
		<path class="st0" d="M197.1,46.9h7.9c-0.1,1.9-0.8,5.5-3.2,7.8c-2.1,2-4.6,2.5-6.8,2.5c-2.3,0-4.4-0.5-6.4-2.5
			c-1.1-1.2-2.5-3.2-2.5-6.4c0-3,1.2-5.9,3.2-7.9c2-1.9,4.6-3,7.8-3c1.7,0,3.2,0.3,4.6,1.2c1.2,0.7,2.2,1.7,3,2.8l-2.3,1.7
			c-0.5-0.7-1.3-1.5-2.1-2c-1.1-0.7-2.3-1-3.5-1c-2.5,0-4.3,1-5.5,2.1c-1.6,1.6-2.3,3.8-2.3,5.8c0,1.9,0.7,3.7,1.8,4.8
			c0.7,0.7,2.1,1.7,4.4,1.7c1.6,0,3-0.4,4.2-1.5c0.6-0.6,1.5-1.6,1.9-3.4h-4.8L197.1,46.9z"/>
		<path class="st0" d="M225.3,39.9c2.2,2.1,2.5,4.8,2.5,6.5c0,3.9-1.6,6.4-3,7.9c-2.5,2.6-5.5,3-7.9,3c-2.6,0-4.8-0.6-6.6-2.5
			c-1.5-1.5-2.5-3.8-2.5-6.5c0-3,1.2-6,3.1-7.9c1.9-1.9,4.8-3,8-3C222.2,37.4,224.2,38.7,225.3,39.9z M222.5,52.4
			c1.5-1.4,2.3-3.7,2.3-5.9c0-2.2-0.9-3.7-1.7-4.5c-1.1-1.1-2.7-1.9-4.8-1.9c-1.8,0-3.7,0.5-5.3,2.1c-1.3,1.3-2.4,3.3-2.4,5.8
			c0,2.4,1,3.9,1.8,4.6c1.3,1.4,2.9,1.8,4.5,1.8C219.4,54.5,221.3,53.7,222.5,52.4z"/>
		<path class="st0" d="M246.3,42.2c-1.8-1.8-4-2.1-5.2-2.1c-2,0-3.8,0.7-5.2,1.9c-1.4,1.3-2.4,3.6-2.4,6.2c0,2.1,0.7,3.5,1.7,4.5
			c1.1,1.2,2.5,1.8,4.5,1.8c2.6,0,4.4-1.3,5.4-2.2l-0.4,3.5c-2.3,1.3-3.9,1.4-5.3,1.4c-2.3,0-4.4-0.5-6.3-2.4
			c-1.7-1.7-2.5-3.8-2.5-6.6c0-3.5,1.3-6.1,3.2-7.9c2.1-2,4.6-2.9,7.6-2.9c1.7,0,3.4,0.4,5.4,1.4L246.3,42.2z"/>
		<path class="st0" d="M253.4,37.7L251,56.8h-2.9l2.3-19.1H253.4z"/>
		<path class="st0" d="M273.4,39.9c2.2,2.1,2.5,4.8,2.5,6.5c0,3.9-1.6,6.4-3,7.9c-2.5,2.6-5.5,3-7.9,3c-2.6,0-4.8-0.6-6.6-2.5
			c-1.5-1.5-2.5-3.8-2.5-6.5c0-3,1.2-6,3.1-7.9c1.9-1.9,4.8-3,8-3C270.3,37.4,272.3,38.7,273.4,39.9z M270.7,52.4
			c1.5-1.4,2.3-3.7,2.3-5.9c0-2.2-0.9-3.7-1.7-4.5c-1.1-1.1-2.7-1.9-4.8-1.9c-1.8,0-3.7,0.5-5.3,2.1c-1.3,1.3-2.4,3.3-2.4,5.8
			c0,2.4,1,3.9,1.8,4.6c1.3,1.4,2.9,1.8,4.5,1.8C267.6,54.5,269.4,53.7,270.7,52.4z"/>
		<path class="st0" d="M288.5,42c-0.1-0.5-0.5-1-0.9-1.3c-0.5-0.4-1.3-0.5-1.9-0.5c-1.1,0-1.8,0.4-2.2,0.7c-0.5,0.4-0.8,1-0.8,1.7
			c0,0.7,0.3,1.1,0.7,1.5c0.6,0.5,1.1,0.7,1.9,1l1.5,0.7c1.2,0.5,2,1.2,2.4,1.7c0.8,0.9,1,1.9,1,3.1c0,2.2-0.8,3.7-1.7,4.7
			c-1.5,1.6-3.5,1.9-5,1.9c-1.5,0-2.8-0.3-3.8-1.3c-0.9-0.9-1.7-2.5-1.8-4.3l3-0.6c0,0.7,0.1,1.9,0.7,2.6c0.5,0.6,1.2,1,2.4,1
			c1,0,1.7-0.3,2.3-0.8c0.7-0.7,1.1-1.8,1.1-2.8c0-0.8-0.3-1.3-0.7-1.8c-0.5-0.6-1.3-0.9-1.9-1.2l-1.5-0.7c-0.7-0.3-1.6-0.8-2.3-1.5
			c-0.6-0.7-1.1-1.7-1.1-2.8c0-0.3,0-2.1,1.5-3.7c1-1.1,2.5-1.8,4.6-1.8c0.9,0,2.2,0.1,3.3,0.9c1,0.7,1.5,1.6,1.8,2.3L288.5,42z"/>
	</g>
	<g>
		<g>
			<path class="st1" d="M16.3,30.7c0,0-3.7,0.8-5.2,0.9c-1.5,0.1-2.3-0.1-4.7-1.3s-3.9-3.1-4.8-4.7s-0.5-2-0.3-2.5
				c0.3-0.5,0.9-0.8,1.5-1s9.7-2.4,11-2.6s6-1.2,6-1.2s3.3-8.8,3.7-9.7c0.4-0.9,2.7-6.7,4.2-7.5s4.2-1.3,6.5-0.4
				c2.2,0.9,3.9,3.4,4.1,5.7s-3.2,10.8-3.2,10.8s7-0.5,10.4,0c3.4,0.4,5.6,1.1,7.6,2.6c2,1.5,2.6,3.4,2.8,5.7
				c0.2,2.2-0.8,2.2-1.1,2.3c-0.4,0.1-11.5-0.9-13.9-0.9s-9.1,0.7-9.1,0.7s-2.2,6.6-2.9,9.4c-0.6,2.8-1.6,7.3-1.7,8.7
				c-0.2,1.4-0.4,3.7-1.5,4.6c-1.1,0.9-4.8,0.9-6.9-0.5s-5.5-6.1-5.5-9.2S16.3,30.7,16.3,30.7z"/>
		</g>
		<g>
			<path class="st0" d="M65.9,57.2c-1.2,0-2.1-1-2.1-2.2v-9.3c0-0.6,0-1.2-0.1-1.7c-0.1-0.5-0.2-1-0.4-1.4c-0.2-0.4-0.5-0.7-0.9-1
				c-0.4-0.2-0.8-0.4-1.4-0.4c-0.6,0-1.1,0.1-1.5,0.4c-0.4,0.3-0.8,0.6-1.1,1c-0.3,0.4-0.5,0.9-0.6,1.5c-0.1,0.5-0.2,1.1-0.2,1.7V55
				c0,1.2-1,2.2-2.1,2.2H53c-1.2,0-2.1-1-2.1-2.2v-9.8c0-1.2-0.2-2.2-0.7-2.9c-0.5-0.7-1.2-1.1-2.2-1.1c-1.1,0-1.9,0.4-2.5,1.3
				c-0.6,0.9-0.9,1.9-0.9,3.2V55c0,1.2-0.9,2.2-2.1,2.2H40c-1.2,0-2.1-1-2.1-2.2V38.4c0-1.2,0.9-2.2,2.1-2.2h2.2
				c1.2,0,2.1,1,2.1,2.2v0.7h0.1c0.2-0.4,0.6-0.9,0.9-1.3c0.4-0.4,0.8-0.8,1.3-1.1c0.5-0.3,1.1-0.6,1.7-0.8c0.6-0.2,1.3-0.3,2.1-0.3
				c1.5,0,2.7,0.3,3.7,0.9c0.4,0.2,0.7,0.5,1,0.8c0.8,0.8,2,0.8,2.9,0.1c0.3-0.3,0.7-0.6,1.1-0.8c1.1-0.6,2.3-1,3.9-1
				c1.4,0,2.5,0.3,3.5,0.8c0.9,0.5,1.7,1.2,2.3,2c0.6,0.8,1,1.8,1.2,2.8c0.3,1,0.4,2,0.4,3V55c0,1.2-0.9,2.2-2.1,2.2H65.9z M96,46.6
				c0,1.7-0.3,3.3-0.9,4.7c-0.6,1.4-1.5,2.6-2.5,3.5c-1.1,1-2.3,1.7-3.7,2.3c-1.4,0.5-2.9,0.8-4.5,0.8c-1.6,0-3.1-0.3-4.5-0.8
				c-1.4-0.5-2.7-1.3-3.7-2.3c-1.1-1-1.9-2.2-2.5-3.5c-0.6-1.4-0.9-3-0.9-4.7c0-1.7,0.3-3.3,0.9-4.6c0.6-1.4,1.5-2.5,2.5-3.5
				c1.1-1,2.3-1.7,3.7-2.2c1.4-0.5,2.9-0.8,4.5-0.8c1.6,0,3.1,0.3,4.5,0.8c1.4,0.5,2.6,1.2,3.7,2.2c1.1,1,1.9,2.1,2.5,3.5
				C95.7,43.3,96,44.9,96,46.6z M89.3,46.6c0-0.7-0.1-1.3-0.3-2c-0.2-0.6-0.5-1.2-1-1.7c-0.4-0.5-0.9-0.9-1.6-1.2
				c-0.6-0.3-1.3-0.5-2.2-0.5c-0.8,0-1.5,0.2-2.2,0.5c-0.6,0.3-1.1,0.7-1.5,1.2c-0.4,0.5-0.7,1.1-0.9,1.7c-0.2,0.6-0.3,1.3-0.3,2
				c0,0.7,0.1,1.3,0.3,2c0.2,0.6,0.5,1.2,1,1.8c0.4,0.5,0.9,0.9,1.6,1.2c0.6,0.3,1.3,0.5,2.2,0.5c0.8,0,1.5-0.2,2.2-0.5
				c0.6-0.3,1.1-0.7,1.6-1.2c0.4-0.5,0.7-1.1,0.9-1.8C89.2,47.9,89.3,47.3,89.3,46.6z M109.7,57.2h-4.5c-0.9,0-1.7-0.6-2-1.4
				l-6.5-16.6c-0.6-1.4,0.5-3,2-3h2.8c1,0,1.8,0.6,2.1,1.5l3.9,12.1h0.1l3.9-12.1c0.3-0.9,1.1-1.5,2.1-1.5h2.6c1.6,0,2.6,1.6,2,3
				l-3,7.5l-3.6,9.1C111.4,56.7,110.6,57.2,109.7,57.2z M128,29.4c0,0.5-0.1,1-0.3,1.5c-0.2,0.5-0.5,0.9-0.8,1.2
				c-0.4,0.3-0.8,0.6-1.3,0.8c-0.5,0.2-1,0.3-1.5,0.3c-1.1,0-2.1-0.4-2.8-1.1c-0.8-0.7-1.1-1.6-1.1-2.7c0-0.5,0.1-1,0.3-1.5
				c0.2-0.5,0.5-0.9,0.8-1.2c0.4-0.3,0.8-0.6,1.3-0.8c0.5-0.2,1-0.3,1.6-0.3c0.5,0,1,0.1,1.5,0.3c0.5,0.2,0.9,0.5,1.3,0.8
				c0.4,0.3,0.6,0.7,0.8,1.2C127.9,28.4,128,28.9,128,29.4z M120.8,55V38.4c0-1.2,0.9-2.2,2.1-2.2h2.4c1.2,0,2.1,1,2.1,2.2V55
				c0,1.2-0.9,2.2-2.1,2.2H123C121.8,57.2,120.8,56.2,120.8,55z M130.6,55V26.3c0-1.2,0.9-2.2,2.1-2.2h2.5c1.1,0,2.1,1,2.1,2.2V55
				c0,1.2-0.9,2.2-2.1,2.2h-2.5C131.6,57.2,130.6,56.2,130.6,55z M86,25.8c-3.1,0-3.1,0-3.9,3.1c-0.1,0.6-0.3,1.2-0.4,1.8
				c-0.3,1.3,0.3,2,1.6,2.2c1.9,0.2,3.1-0.3,4.1-2.2c0.5-0.9,0.9-1.5,1.3-2.3c0.9-1.6,0.4-2.5-1.5-2.5C86.8,25.8,86.4,25.8,86,25.8z
				"/>
		</g>
	</g>
</g>
</svg>
