<?xml version="1.0" encoding="utf-8"?>
<!-- Generator: Adobe Illustrator 19.0.0, SVG Export Plug-In . SVG Version: 6.00 Build 0)  -->
<svg version="1.1" xmlns="http://www.w3.org/2000/svg" xmlns:xlink="http://www.w3.org/1999/xlink" x="0px" y="0px"
     viewBox="0 0 1207.1 388.9" style="enable-background:new 0 0 1207.1 388.9;" xml:space="preserve">
<style type="text/css">
    .st0{fill-rule:evenodd;clip-rule:evenodd;fill:#FFFFFF;}
    .st1{fill:#1F94D2;}
    .st2{fill:#FFFFFF;}
    .st3{fill-rule:evenodd;clip-rule:evenodd;fill:#1F94D2;}
</style>
<g id="Capa_1">
    <path class="st0" d="M1167.7,142.3c-8.4,3.3-17.2,5.2-26.2,5.6c-3.6,0.2-7.9-0.3-9.4-3.5c-1.2-2.6,0-5.6,1.6-8
        c4.3-6,11.1-9.6,16.9-14.2c5.8-4.5,11.2-11.2,10.2-18.5c-1.2-8.8-10.6-13.8-19.1-16c-18.9-4.9-40.4-3.6-55.6-15.7
        c-1.6-1.3-3.2-2.8-3.8-4.7c-0.5-1.7-0.2-3.6,0.2-5.4c1.5-6.1,4.3-12,8.1-17c-20.5-4.4-41.7,1.3-61.4,8.2
        c-6.7,2.3-13.4,4.8-20.1,7.4c-3.7,1.5-7.6,3.1-10.3,6c-2.7,2.9-4,7.6-2,11c1.2,2,3.3,3.2,5.2,4.5c6.3,4.1,12,9.2,16.8,15
        c1.3,1.6,2.6,3.3,2.9,5.4c0.4,3-1.8,6-4.4,7.5c-2.7,1.5-5.8,1.9-8.8,2.4c-23.1,3.4-46.2,9.5-65.6,22.3c-4.6,3-9.4,7.9-7.9,13.1
        c0.9,3.1,3.8,5.1,6.6,6.6c15,7.8,33.1,6.8,49.2,11.9c4.1,1.3,8.7,3.9,8.8,8.2c0.1,4.2-4.3,7-8.2,8.6c-11.3,4.9-23.2,8.3-35.3,10.1
        c3.2,3.5,6.5,7,9.7,10.5c0.6,0.6,1.2,1.3,2,1.6c1.8,0.7,3.7-0.4,5.3-1.4c22.6-13.7,52.1-11.5,74.8-25.1c3.5-2.1,7.3-5.9,5.9-9.8
        c-0.7-1.8-2.3-3-3.9-4c-14.7-9.5-33.3-10.2-49.5-16.9c-1.6-0.7-3.4-1.5-4.3-3c-1.8-3.2,0.8-7,3.6-9.4
        c14.2-12.7,33.6-17.5,49.7-27.6c2.3-1.4,4.7-3.3,4.8-6c0.1-2.5-1.8-4.5-3.7-6.1c-5.4-4.6-11.6-8.2-18.2-10.7
        c-4.2-1.6-8.7-2.8-12.1-5.8c-3.4-3-5.1-8.5-2.4-12.1c1.3-1.7,3.4-2.7,5.3-3.5c4.9-3.1,11-4.9,16.3-7.3c4.3-1.9,9.1-5.3,13.8-5.8
        c0.8-0.1,1.6,0,2.5,0c0.9,0,5.8-0.1,6.1,0.9c0.2,0.8-2.1,2.8-2.5,3.5c-0.9,1.5-1.8,2.9-2.8,4.4c-1,1.4-2,2.8-3.3,3.9
        c-1.1,1-3.1,2-3.5,3.6c-0.4,1.3-0.1,2.8-1.6,3.9c1.2,4.9,4.7,8.2,9.9,10.6c3.7,1.7,7.1,3.8,10.5,5.9c7.3,4.5,10.7,10.7,11.6,18.1
        c0.3,2.4-0.2,4.3-2.1,6.2c-4,4.1-8.4,7.7-13.5,10.7c-6.7,4-13.5,7.8-20.2,11.9c-2.7,1.6-5.4,3.3-7.7,5.3c-4.4,3.7-4.5,7.4-0.9,11.5
        c2.4,2.7,5.5,4.8,9,6.5c8.9,4.5,18.7,6.6,29,7.2c3.6,0.2,7,0.8,10.3,1.9c6.9,2.3,8.9,6.3,6.3,12.1c-1.6,3.5-4.1,6.6-6.9,9.5
        c-4.4,4.4-9.3,8.5-14.5,12.3c-1.9,1.4-3.5,2.8-3.8,5c-2.2,15.1,2.9,24.1,20.9,27.3c3.1,0.5,6.1,0.8,9.2,0.7c1.3,0,3.1,0.8,4-1
        c-5-2.8-10.1-5.5-13.5-9.8c-3-3.8-4.7-7.8-2.2-12.1c6.6-11.1,16-19.9,29.9-24.9c2.9-1,5.5-2.4,7.7-4.3c8.7-7.1,8.2-15.8-1.3-22.1
        c-3.7-2.4-7.8-4.2-12.2-5.6c-7.7-2.3-15.5-4.4-23.2-6.7c-3.1-0.9-6.3-1.8-9.2-3.2c-4.8-2.2-5.4-5.6-1.8-9.2
        c2.1-2.2,4.8-3.8,7.6-5.4c4.8-2.7,9.7-5.3,14.4-8c5.4-3.1,8.3-7.1,6.6-12.9c-1.9-5.7-4.7-13-8.4-16.1c-3.7-3.1-7.5-5.7-11.8-7.9
        c-6.6-3.4-13.1-6.9-15.9-13.5c-1.1-0.1-2.2-6.9-2.2-6.9s6.8-10.8,6.8-10.8c2-1.5,4.7-2.2,6.7-0.3c-6.8,4.4-5.9,15.3-0.4,21.3
        c5.5,6,13.7,8.4,21.3,10.9c9.4,3.2,18.6,6.9,27.4,11.3c3.5,1.7,7.4,4.1,7.9,8c0.7,5.5-5.6,9-10.7,11.1c-6.5,2.7-12.7,6.1-18.6,9.9
        c-2.5,1.6-5.1,3.5-6.4,6.3c-1.1,2.5-1,5.3-0.1,7.9c3.4,9.2,15,11.7,24.8,12.8c8.6,1,17.3,2,25.9,3c4.8,0.6,9.9,1.1,14.3-1
        C1167,152.2,1170.1,146.5,1167.7,142.3z"/>
    <g>
        <path class="st1" d="M363.1,259c-3.4-8.1-9-15.1-15.8-20.6c-3.4-2.9-7.2-5.4-11.1-7.5c-1.9-1.1-3.9-2.1-6-2.9
            c-0.8-0.3-4.2-0.5-4.5-0.8c-0.5-0.4-1.3-0.9-2.3-1.3c-1.5,0-3.7,1.6-6.9,4.7c-1.4,1.4-4.4,3.9-4.6,6.1c-0.4,3.5,4.1,7.7,5.8,10.5
            c0.7,1.1,1.2,2,1.3,2.7c-1.8,9.7-3.4,19.3-4.6,29.1c-0.5,4.3-1.1,8.6-1.8,12.9c-0.5,3.5-1.8,7.4-1.1,10.9c0.2,1,0.3,1.8,0.3,2.3
            c0,1.9-1.2,3.4-3.5,4.5c-2.4,1.1-3.5,2-3.5,2.6c0,0.5,0.2,1,0.5,1.5c0.4,0.5,1,0.9,1.9,1.3c0.6,0.4,1.2,0.8,1.8,1.1
            c0.6,0.3,1.2,0.7,1.9,0.9c0,0,0.4,4.2,0.4,4.2c-1.1,3.9-5.2,20.3,2.6,20.3c2.4,0,4.3-2.1,5.6-3.9c0.4-0.5,3.7-5.4,3.3-5.8
            c-1.1-1.3-1.9-2.4-2.4-3.5c-0.5-1.1-0.8-2.1-0.8-2.9c0.1-2.3,0.3-4.6,0.4-7c0.2-3.7,0.5-5.6,0.8-5.8c0.3-0.2,1.1-0.3,2.5-0.3
            c0.5,0,1.2-0.2,2.1-0.6c0.9-0.4,2-0.9,3.2-1.5c7.5-3.1,15.1-5.7,22.1-9.9c4.5-2.7,9.1-5.9,11.9-10.4c2.9-4.6,3.3-10.7,3.3-16
            C366.2,268.7,365.1,263.7,363.1,259z M352.1,286.3c-0.4,0.8-0.8,1.5-1.4,2.2c-1.8,2.4-4.2,4.3-6.7,6.1c-5.2,3.6-11.3,7.1-17.3,9.2
            c-1.3,0.4-2.1,0.7-2.6,0.7c-0.4,0-0.7-0.1-0.9-0.4c-0.2-0.2-0.3-0.6-0.3-1.2c0-2.1,0.3-4.9,1-8.4c0.7-3.5,1.6-7.7,2.9-12.6
            l-0.6-3.1c0.7-1.4,2-5.4,3.8-12.1c1.9-6.7,2.8-10.4,2.8-11.3c0-2.9-2.9-7.3-8.6-13.2c0-0.3,0.1-0.5,0.2-0.7
            c0.1-0.1,0.3-0.2,0.6-0.2c1.6,0.8,3.1,1.4,4.4,2c1.3,0.6,2.4,1.1,3.3,1.5c0.6,0.5,1.1,1,1.6,1.5c0.5,0.5,0.9,0.9,1.3,1.2
            c8.1,7,15,14.7,17.5,25.4C354.1,277.3,354.1,282.2,352.1,286.3z"/>
        <path class="st1" d="M402.3,283.1c0,0,0,0.1,0,0.1C402.3,283.1,402.3,283.1,402.3,283.1z"/>
        <path class="st1" d="M653,283.1c0,0,0,0.1,0,0.1C653,283.1,653,283.1,653,283.1z"/>
        <path class="st1" d="M721.1,273.8c0.7,0,1.5,0,2.2,0.1c0.8,0.1,1.5,0.2,2.4,0.3c0.3,0,0.8-0.1,1.6-0.4c0.8-0.3,1.7-0.9,2.8-1.6
            c1.1-0.6,2-1.3,2.7-2.1c0.8-0.8,1.3-1.7,1.8-2.8c0.2-0.5,0.5-1.3,0.8-2.4c0.4-1.1,0.8-2.5,1.3-4.3c0.2-0.9,0.4-2.1,0.7-3.4
            c0-0.9-0.3-1.6-0.8-2.1c-0.6-0.5-1.4-0.7-2.7-0.7c-1,0-1.9,0.1-2.7,0.3c-0.8,0.2-1.4,0.5-1.9,0.8c-1.1,1.3-2.1,2.5-2.9,3.5
            c-1.4,0.1-2.9,1.3-4.7,3.5c-1.8,2.2-2.7,4-2.7,5.5c0,1.7,0.2,3,0.5,3.9C719.9,272.8,720.4,273.5,721.1,273.8z"/>
        <path class="st1" d="M848.3,315.3c-0.5-1.1-1-2.3-1.6-3.6c-0.2,0.1-0.8,0.6-1.8,1.5c-1,0.8-2.3,2-4,3.6c-1.5,1.3-2.6,2.3-3.5,2.9
            c-0.9,0.7-1.5,1-1.8,1c-0.4-0.2-0.6-0.4-0.7-0.6c0.6-1.9,1.1-3.6,1.5-4.9c0.4-1.4,0.8-2.5,1.2-3.4c1.7-5.6,2.8-9,3.1-10
            c0.3-1.1,0.8-4.1,1.5-9c0.2-1.7,0.4-3.1,0.5-4.2c0.2-1.1,0.3-1.9,0.3-2.4c0-1.9-0.5-3.4-1.6-4.5c-1.1-1-2.7-1.6-4.9-1.6
            c-0.5,0-1.1,0.1-1.6,0.3c-0.6,0.2-1.2,0.4-1.8,0.7c-5.7,5.1-11,10.8-16.4,16.3c-3.3,3.3-6.9,6.2-10.4,9.3c-3.3,3-6.1,7.6-10,9.9
            c-0.4,0.2-0.8,0.4-1.3,0.4c-1.5,0-2.6-0.6-3.5-1.9c-0.9-1.2-1.3-2.6-1.3-4.2c0-2.2,0-4.6,0.1-7c-0.1-1.6-0.4-2.8-0.9-3.6
            c-0.5-0.8-1.3-1.2-2.3-1.2c-1.6,0-3.4,0.6-5.4,1.9c-2.8,1.8-4.9,4.5-7.5,6.6c-3.7,3.1-7.2,6.6-11.1,9.4c-1.2,0.8-2.3,1.4-3.3,1.7
            L759,318c1.4-2,2.5-3.6,3.4-4.8c0.9-1.2,1.5-2,1.8-2.3c3-2.7,5.8-5.5,8.6-8.5c1.1-1.2,2.2-2.4,3.3-3.5c2.3-2.4,4.8-4.5,7.1-6.8
            c1.1-1.1,2.1-2.2,2.8-3.2c1.4-1.1,2.7-2,3.9-2.9c0.8-0.5,1.3-1.2,1.7-2c0.4-0.8,0.5-1.7,0.5-2.7c0-1-0.3-1.7-0.9-2.3
            c-0.6-0.5-1.5-0.8-2.8-0.8c-2.3,0-5.1,1-8.4,3.1c-7.8,4.9-15.5,11.5-22.1,18c-2.6,2.5-4.6,5.1-7.6,7.2c-4.5,3.1-7.5,8.9-12.8,10.7
            c-2.9,1-5.3,0.6-6.2-2.6c-1.5-5-2.2-10.2-3.4-15.3c-0.4-1.7-1.2-3-2.3-3.8c-1.2-0.8-2.6-1.3-4.3-1.3c-0.6,0-1.3,0.2-1.9,0.5
            c-0.6,0.3-1.2,0.9-1.7,1.7c-1.3,1.8-3.5,4.1-6.8,7c-4.8,4.2-9.4,9.3-14.1,13.8c-1,1-2,1.7-2.8,2.3c-0.9,0.6-1.6,0.8-2.3,0.8
            c-0.3,0-0.5-0.1-0.7-0.2c-0.2-0.1-0.3-0.3-0.3-0.6c0-1.8,0.8-4.6,2.3-8.2c1.5-3.6,2.3-6.4,2.3-8.3c0-3.7-0.5-6.8-1.5-9.4
            c-1-2.6-2.4-4.6-4.4-6c-0.2-0.2-0.6-0.5-1.2-0.8c-1.1-1.1-2.2-2.1-3.3-3.1c-1.1-1-2.5-1.5-4.2-1.5c-1.6,0-3.6,0.8-6.1,2.5
            c-2.5,1.7-4.1,3.1-4.7,4.3l0.7,3.5c-1,2.3-2.7,4.8-4.9,7.5c-2.3,2.7-5.2,5.5-8.7,8.4c-3.2,2.6-5.1,5.6-9.5,6.8
            c-3.4,0.9-9.5,1.2-11.3-2.7c-0.4-0.8-0.5-1.7-0.5-2.7c0-0.6,0.1-1.1,0.4-1.6c0.2-0.5,0.5-0.9,0.9-1.3c4-3.9,7.2-7.4,9.6-10.5
            c4.2-5.5,7.6-12.6,4.8-19.4c-0.3-0.8-0.6-1.4-1-1.7c-0.5-0.6-1.1-1-1.9-1.2c-0.8-0.2-1.7-0.4-2.9-0.4c-4,0-7,2.3-9.6,5.1
            c-6.2,6.6-10.3,14.7-11.7,23.5c-0.1,0.9-0.3,1.9-0.4,2.9c-1.4,1.1-2.6,2.2-3.5,3.2c-2.1,2.4-5.3,6-8.2,2.4c-3-3.7-0.1-9.4-2-13.5
            c-0.3-0.6-0.8-1.1-1.6-1.4c-0.8-0.3-1.8-0.5-3-0.5c-1.4,0-2.7,0.6-3.8,1.7c-1.1,1.1-2.2,2.9-3.1,5.2c-0.4,0.5-0.8,1.1-1.3,1.6
            c-0.5,0.5-0.9,1-1.2,1.4c-0.9,1.3-1.8,2.6-2.7,4c-1.9,2.3-4.3,6.8-6.9,8.2c-1,0.5-1.8,1-2.5,1.4c-0.7,0.4-1.3,0.8-1.8,1.1
            c-0.5,0.1-0.9-0.4-1.1-1.7c-2.1-10.3,2.2-20.1,5.2-29.7c0.2-0.6,0.4-1.2,0.5-1.7c0.1-0.5,0.2-0.9,0.2-1.2c0-0.9-0.2-1.5-0.6-2
            c-0.4-0.5-0.9-0.7-1.7-0.7c-0.4,0-1.1,0.2-2.2,0.6c-2.8,1-4.2,1.8-6,4.2c0,1.9-5,6.6-6.2,8.2c-1.9,2.5-3.9,5-5.8,7.5
            c-1.3,1.6-2.5,3-3.5,4.2c-1,1.2-2,2.1-2.8,2.8c0,0.3-0.1,0.5-0.2,0.7c-0.1,0.2-0.2,0.3-0.4,0.4c0-0.9,0.1-1.7,0.3-2.4
            c0.1-0.5,0.2-1,0.3-1.5c0.1-0.5,0.1-0.9,0.1-1.2c0-1.4-0.2-2.5-0.6-3.3c-0.4-0.9-1-1.6-1.7-2c-0.8-0.5-1.7-1-2.7-1.5
            c-1.3,0.3-2.9,1.1-4.8,2.2c-1.9,1.1-4.1,2.7-6.6,4.5c-5.5,4.3-9.1,6.9-11,7.9c-1.8,0.9-3.2,1.7-4,2.2c-0.3,0-0.5-0.1-0.7-0.4
            c-0.2-0.3-0.3-0.7-0.3-1.3c0-1,0.5-2.2,1.6-3.7c3.7-5.2,9.1-8.6,13.9-12.7c0.3-0.3,0.6-0.6,0.9-0.8c0.2-0.2,0.4-0.5,0.6-0.7
            c2-1.3,3.8-2.4,5.2-3.3c1.4-0.9,2.6-1.7,3.6-2.2c1.1-0.6,2.1-1.1,3-1.5c0.8-0.3,1.4-0.7,1.8-1c0.4-0.3,0.6-0.7,0.5-1.1
            c-0.8-1.5-1.6-2.7-2.6-3.5c-0.9-0.8-1.9-1.2-2.9-1.2c-8.3,0-17.6,7.8-24.2,12c-2.1,1.3-4.1,2.6-6,4.2c-2.8,2.3-5.4,3.8-8.5,5.6
            c-1.7,1-3.1,1.9-4.3,2.8c-0.8,0.8-1.4,1.6-1.9,2.2c-0.5,0.7-0.9,1.2-1.2,1.7c-0.5,0.2-1.1,0.4-1.6,0.5c-0.5,0.1-1,0.2-1.4,0.2
            c-5,0-4.2-7.8-4.5-11.2c-0.4-3.7-1-5.7-5.1-5.7c-4.3,0-6.2,5.6-8.3,8.5c-1.8,2.7-3.8,5.3-5.8,7.8c-1.3,1.6-3.1,4.8-4.9,5.8
            c-1,0.5-1.8,1-2.5,1.4c-0.7,0.4-1.3,0.8-1.8,1.1c-0.5,0.1-0.9-0.4-1.1-1.7c-1.3-6.3-0.1-12.7,1.6-18.8c0.9-3.2,6.2-12.9,3.8-15.9
            c-0.4-0.5-0.9-0.7-1.7-0.7c-0.4,0-1.1,0.2-2.2,0.6c-1.1,0.4-2.6,1-4.5,2c-5.2,6.7-10.3,13.6-15.6,20.3c-3.3,4.2-6.9,8.6-11.8,10.7
            c-10.1,4.4-16.5-3.5-16.5-13c1.6-2.4,3.2-5,4.7-7.6c11.3-16.7,19.5-34.4,22.7-54.3c0.3-1.6,0.4-2.8,0.4-3.6c0-3-0.5-5.1-1.6-6.1
            c-1-1.1-3-1.6-5.8-1.6c-1.4,0-3,1-4.8,2.9c-6.3,6.9-10.4,16.4-14.1,24.9c-5.5,12.8-11.1,27.9-11.1,42.2c0.1,0.4,0.2,0.9,0.2,1.5
            c0,0.4,0,0.8,0,1c0,0.2-0.1,0.4-0.3,0.6c0,0-4.8,4.2-4.8,4.2c-2.4,2.7-3.6,4.9-7.1,6.4c-2.4,1.1-5,2-7.7,1.9c-3.7-0.1-7.3-2-7.3-6
            c0-0.6,0.1-1.1,0.4-1.6c0.2-0.5,0.5-0.9,0.9-1.3c6.5-6.3,13.2-13.1,15.3-22.2c0.2-0.7,0.3-1.4,0.3-2.1c0.1-2.3-0.7-5.5-2.2-7.3
            c-0.5-0.6-1.1-1-1.9-1.2c-0.8-0.2-1.7-0.4-2.9-0.4c-2.8,0-5,0.9-7.1,2.8c-7.6,6.8-12.7,15.8-14.2,25.8c-0.1,0.9-0.3,1.9-0.4,2.9
            c-1.4,1.1-2.6,2.2-3.5,3.2c-0.9,1-1.7,2.1-2.3,3.1c0.8,1.6,1.4,2.9,1.9,4c0.5,1.1,0.8,2,1,2.7c0.6-0.7,1.1-1.3,1.6-1.6
            c0.5-0.4,0.9-0.5,1.3-0.5c0.5,0,0.9,0.3,1.3,0.8c0.4,0.5,0.8,1.3,1.2,2.4c0.5,1.3,1,2.4,1.5,3.4c2,4,6.4,5.5,10.7,5.2
            c3.7-0.3,8.2-1.4,11.4-3.4c2.3-1.4,4.8-3.4,7.5-6.1c1.2-1.1,2.2-2.1,3.1-3c0.8-0.9,1.6-1.6,2.2-2.3c0.4,0.4,0.7,0.8,0.9,1.2
            c0.2,0.3,0.3,0.7,0.4,1.2c0.7,4.4,2,7.6,3.7,9.8c2.3,2.9,5.6,3.3,9.1,3.6c2.4,0.2,4.9,0.4,7.3-0.1c3-0.7,5.6-2.5,7.9-4.4
            c0.6-0.5,6.6-5.6,6.5-5.9c0,0,0-0.1,0-0.1c0.6-0.7,1-1.3,1.3-1.8c0.3-0.5,0.6-0.9,0.7-1.3l4.1-4.3l0.4-0.2c0.3,0,0.6,0.4,0.8,1.1
            c0.2,0.7,0.3,1.8,0.4,3.2c-0.1,0.3-0.1,1.1,0.1,2.5c0.6,5.8,1.3,13.8,8.9,13.8c1.5,0,3.1-0.4,4.8-1.3c3.7-1.9,6.5-5.1,9.1-8.3
            c0.5-0.6,7.3-8.9,7.2-9.1c0.5,0.6,0.9,1.2,1.2,1.7c0.3,0.6,0.5,1.2,0.6,1.7c1.1,3.6,3.5,6.7,7.4,7.3c3.8,0.7,10.6-2.5,13.3-5.2
            c0.3-0.3,0.5-0.6,0.8-0.8c0.2-0.3,0.4-0.6,0.5-1.1c0.7-0.5,1.4-1.1,2.1-1.7c0.6-0.5,1.3-0.9,2.1-1.4l0.6,0.6c0,0.3-0.5,1.7-1.5,4
            c-1,2.3-1.5,4.1-1.5,5.2c0.8,1.7,1.4,4,2.8,5.2c3.6,2.9,9-0.3,12.1-2.3c3.9-2.6,7.8-5.4,11.5-8.2c1.8-1.4,3.7-2.8,5.7-4.1
            c0.4,0,0.7,0.1,0.9,0.3c0.2,0.2,0.3,0.4,0.3,0.8c0,1.9-0.3,4.5-0.8,7.9c-1.8,10.7-4.8,21.4-7.3,32c-1.4,6.1-2.9,12.2-4.7,18.2
            c-0.3,1-0.6,2.3,0.2,3c0.3,0.3,0.8,0.5,1.2,0.6c2.1,0.4,4.3-0.9,5.6-2.7c1.5-2.2,2.1-5.1,3.1-7.6c2.5-6.2,3.8-12.9,5.8-19.3
            c1.5-4.9,3.1-9.7,4.8-14.5c0.8-2.1,1.4-4.3,2.4-6.3c1.8-3.6,4.4-6.4,6.6-9.7c0.3-0.5,0.6-0.9,0.7-1.3l4.1-4.3l0.4-0.2
            c0.3,0,0.6,0.4,0.8,1.1c0.2,0.7,0.3,1.8,0.4,3.2c-0.1,0.3-0.1,1.1,0.1,2.5c0.4,4,0.6,9.2,3.9,12.1c2.8,2.5,6.7,2,9.8,0.4
            c1.7-0.9,3.4-2.3,5.1-4.3c1.4-1.5,2.7-3,4-4.5c1.3-1.5,2.6-3.1,3.9-4.7c0.6-0.7,1.2-1.4,1.8-2c0.6-0.7,1.1-1.3,1.5-1.7
            c0.5,0.6,0.9,1.2,1.2,1.7c0.3,0.6,0.5,1.2,0.6,1.7c0.7,2.5,1.9,4.3,3.4,5.6c2.6,2.1,6.1,2.2,9.1,1c2.2-0.8,6.8-2.7,8.2-4.5
            c0.6-0.7,1.1-1.3,1.6-1.6c0.5-0.4,0.9-0.5,1.3-0.5c0.5,0,0.9,0.3,1.3,0.8c0.4,0.5,0.8,1.3,1.2,2.4c2.7,6.7,10.5,11.6,17.4,7.3
            c1.9,0,4-0.7,6.2-2.1c8-4.9,15.5-13.1,21.4-20.3c1.3-1.6,2.6-2.9,3.9-4c1.3-1.1,2.4-1.9,3.5-2.5c1.6,0.2,2.8,1,3.6,2.3
            c3.8,6.4,0.2,17.4-2.9,23.5c-2.6,5-3.1,9.9,3.9,9.9c1.3-0.4,2.4-0.9,3.3-1.5c5.4-3.3,10.9-6.6,15.9-10.3c0.8-0.7,1.4-1.3,2-1.8
            c0.6-0.5,1.1-1,1.5-1.4c0,0,0,0,0-0.1c1.9-2.1,3.5-3.6,4.8-4.6c1.3-1,2.4-1.6,3.1-1.6c0.3,0,0.7,0.3,1.1,0.8
            c0.4,0.6,0.9,1.4,1.5,2.5c1.5,2.3,2.5,4.4,3.5,7c1.3,3.5,3.5,5.7,7.3,6.2c5.1,0.7,8.6-1.3,12.6-4.2c1.8-1.3,3.3-2.5,4.6-3.5
            c1.3-1,2.3-1.9,3.1-2.7c0,0,0.1-0.2,0.1,0c0,0.4,0,0.9-0.1,1.5c-1.1,1.1-2,2.3-2.5,3.5c-0.6,1.2-0.8,2.4-0.8,3.7
            c0,2.4,0.6,4.1,1.7,5.3c2.5,2.5,6.1,1.7,8.9,0.2c6.1-3.1,9.8-7.8,14.9-12c1.3-1,2.4-1.9,3.3-2.6c0.9-0.7,1.7-1.3,2.4-1.8
            c0.4-0.4,0.7-0.8,1-1.1c0.3-0.3,0.6-0.5,0.8-0.8c0.4,0.5,0.6,1,0.8,1.4c0.1,0.5,0.2,0.9,0.2,1.3c0.3,3.6,1.3,6.4,3,8.2
            c3.5,3.7,8.4,3.2,12.5,1.1c2.1-1.1,10.5-6.4,9.5-9.2c0.1,0.4,0,0.7,0.4,1c4.7-6.2,10.5-10.8,16.4-15.9c3.4-2.9,5.5-4.4,6.1-4.4
            c0.6,0,1.1,0.2,1.3,0.5c0.3,0.3,0.4,0.8,0.4,1.4c0,0.9,0,2.1-0.1,3.8c-0.1,1.7-0.3,3.6-0.7,5.8c-0.3,2.6-0.7,4.5-1.1,5.9
            c-0.4,1.3-0.7,2-1.1,2c-0.3,0-0.7-0.4-1-1.1c-0.3-0.8-0.8-1.1-1.6-1.1c-1.4,0-2.7,0.5-3.8,1.4c-2.4,2.1-2,6.2-1.6,9
            c0.2,1.7,0.5,3.4,0.9,5c0.3,1.2,1.8,3.5,1.7,4.5c-0.2,4.4,4,2,6.3,1.2c3.8-1.4,6.7-4.6,9.6-7.2c2.9-2.6,8.1-4.6,10.4-7.6
            c0.4-0.6,0.9-1.1,1.4-1.6c0.5-0.5,1.1-0.9,1.7-1.3C849.2,317.4,848.7,316.4,848.3,315.3z M423.8,284.8c0-0.2,0.1-0.4,0.1-0.5
            c0.6-2.1,1.3-4.1,2-6.1c0.8-1.8,1.6-3.4,2.4-4.9c0.6-1.3,1.1-2.3,1.4-3.1c0.3-0.8,0.5-1.4,0.5-1.7c0-2.2,0.7-4.4,2.1-6.8
            c1.4-2.3,3.4-4.8,6.1-7.4l0.5,0.3c-0.2,0.9-0.4,1.9-0.6,2.8c-0.2,0.9-0.4,1.9-0.4,2.9c-0.2,3.9-2.7,8.5-4.2,11.9
            c-2.2,5-4.9,9.8-7.9,14.4c-0.7,1-1.3,2-2.3,2.7C423.3,289.3,423.6,286.1,423.8,284.8z M384.1,299c-0.1-0.1-0.2-0.3-0.2-0.6
            c0-1.3,0.9-3.4,2.7-6.1c1.8-2.8,3.2-4.2,4.3-4.2c0.3,0,0.6,0.1,0.8,0.4c0.2,0.3,0.3,0.6,0.3,1.1c0,0.7-0.1,1.4-0.4,2
            c-0.3,0.7-0.7,1.4-1.3,2c-0.5,0.5-1,1.1-1.5,1.6c-0.5,0.6-1,1.1-1.6,1.6c-0.3,0.5-0.6,1-0.9,1.6c-0.3,0.6-0.8,0.8-1.3,0.8
            C384.5,299.1,384.2,299.1,384.1,299z M446.6,314.4c0.2,0.5,0.4,0.9,0.6,1.3c0.4,0.8,0.6,1.5,0.8,2.1L446.6,314.4z M634.8,299
            c-0.1-0.1-0.2-0.3-0.2-0.6c0-1.3,0.9-3.4,2.7-6.1c1.8-2.8,3.2-4.2,4.3-4.2c0.3,0,0.6,0.1,0.8,0.4c0.2,0.3,0.3,0.6,0.3,1.1
            c0,0.7-0.1,1.4-0.4,2c-0.3,0.7-0.7,1.4-1.3,2c-0.5,0.5-1,1.1-1.5,1.6c-0.5,0.6-1,1.1-1.6,1.6c-0.3,0.5-0.6,1-0.9,1.6
            c-0.3,0.6-0.8,0.8-1.3,0.8C635.2,299.1,634.9,299.1,634.8,299z"/>
    </g>
    <path class="st2" d="M128.1,163.9c-2.3-1.5-4.4-2.9-6.1-4.3c-1.8-1.3-3.4-2.5-4.9-3.7c-2.2-1.3-4.2-2.6-6.1-4
        c-7.5-5.3-14.6-11.1-21.7-16.9c-6.2-5.1-12.9-9.8-18.1-15.9c-1.9-2.2-2.8-4-2.8-5.3c0-1.2,1.4-2.3,4.2-3.3
        c9.6-3.5,18.6-8.5,27.3-13.8c5.8-3.5,11.7-6.4,17-10.6c3.4-2.6,5.9-5.1,7.7-7.3c1.8-2.2,2.8-4.3,3-6.2c0.3-1.5,0.4-2.9,0.5-4.1
        c0.1-1.2,0.1-2.2,0.1-2.8c0-2.2-0.5-4.5-1.6-6.8c-1.1-2.3-2.6-4.6-4.8-7c-1.9-1.8-3.8-3.6-5.9-5.2c-12.1-9.2-28.6-14.5-43.6-15.6
        c-2.2-0.2-3.9-0.2-5-0.2c-2.4,0-4.7,0.5-7,1.4c-2.3,1-4.5,2.4-6.7,4.2c-2.2,2.1-3.9,4.3-5,6.4c-2.2,4.5-2,9.7-1.7,14.6
        c0.1,2.5,0.1,5,0.3,7.5c0.2,1.9,1.4,4,1.4,5.9c0,0.9,0,1.8-0.1,2.8c-0.6,9.1-0.2,18.5-0.2,27.7c0,0.7,0,1.4,0,2.1
        c0,0.8,0,1.5,0,2.1c0,1.1-0.1,2-0.2,2.6c-0.2,0.6-0.5,1.1-0.9,1.3c-1.9,1.3-3.9,2.6-6,4c-0.9,0.7-1.5,1.5-1.9,2.6
        c-0.4,1.1-0.6,2.4-0.6,3.8c0,0.9,1.3,2.5,3.9,4.7c2.6,2.2,3.9,4.8,3.9,7.8c0,1.2-0.1,2.5-0.2,3.9c-0.2,1.4-0.4,3-0.7,4.8
        c-1,4.1-1.7,8-2.1,11.7c-0.4,3.7-0.6,7.2-0.6,10.6c0,2.5,0.7,4.4,2,5.7c1.3,1.3,3.3,1.9,5.8,1.9c0.8,0,1.4-0.3,1.8-0.8
        c0.4-0.6,0.6-1.4,0.6-2.5c1.1-6.3,2-11.8,2.9-16.5c0.9-4.7,1.7-8.6,2.5-11.8c0.1-1,0.4-1.9,1.1-2.9c0.9,0,2.4,0.8,4.7,2.3
        c2.2,1.5,5.2,3.7,8.7,6.6c6.6,5.4,14.4,9.6,21.5,14.5c5.1,3.6,10.4,7.1,16,9.8c3.6,1.7,7.2,3.3,10.7,5c2.7,1.3,6.6,4.5,9.7,4.5
        l1-0.5l0.9-2.6c-0.1-3.3-0.6-6-1.3-8.1C130.5,166.1,129.5,164.7,128.1,163.9z M64.2,102.7c-0.2-0.3-0.3-0.7-0.3-1.3
        c0.3-1.4,0.5-2.5,0.8-3.4c0.7-3.4,1.1-6,1.3-7.6c0.2-1.6,1.1-5.6,2.6-12c0.7-2.8,1.3-5.1,1.6-6.7c0.3-1.7,0.5-2.7,0.5-3.2
        c0-0.9-0.6-2.2-1.7-3.9c-1.2-1.7-2.1-2.6-2.9-2.6c-1.8,0-3.2,0.4-4.4,1.3c-1.1,0.9-2.3,1.8-3.6,2.7c-0.6,0.1-1.1-0.4-1.4-1.5
        c-0.3-1.2-0.5-2.9-0.5-5.1c0-2.9,1.1-5.1,3.2-6.6c2.1-1.5,5.3-2.2,9.6-2.2c12,0,27.4,4.5,36.8,12.4c2.8,2.4,4.3,4.8,4.3,7.2
        c0,1.9-0.6,3.8-1.9,5.7c-3.6,5.5-10.4,8.9-15.7,12.7c-1.8,1.3-3.6,2.6-5.5,3.6c-7.1,3.9-14.5,7.2-21.7,10.8
        C64.7,103.1,64.4,103,64.2,102.7z"/>
    <path d="M253.9,101c0,0.1,0,0.1,0,0.2C253.9,101.1,253.9,101,253.9,101z"/>
    <path class="st2" d="M418,145.1c-0.6-1.5-1.4-3.2-2.3-5.2c-0.5,0.5-0.9,0.9-1.4,1.2c-0.5,0.3-0.9,0.6-1.1,0.7
        c-1.5,1.7-2.6,4-4.9,4.7c-2.4,0.7-4.6-0.3-6-2.2c-1.2-1.7-1.8-3.6-1.7-5.7c0-3,0.1-6.2,0.2-9.5c-0.1-2.2-0.6-3.8-1.3-4.9
        c-3.6-5.4-12.2,2.3-14.9,4.9c-7.1,6.7-14.7,12.9-22.4,19c-1.2,0.9-3.2,1.7-3.8,0.4c5.5-7.8,12.1-14.6,18.7-21.4
        c6.9-7.1,13.8-14.2,21.3-20.5c2-1.6,4.1-3.3,4.9-5.7c1.4-3.7-1.1-6.5-4.8-6.5c-3.1,0-6.9,1.4-11.4,4.3c-10.2,6.4-19,15.3-28.3,22.9
        c-1.2,1-2.5,2-3.5,3.2c-1.1,1.3-2,2.9-3.2,4.2c-3.5,3.8-8.3,5-11.3,9.5c-0.5,0.8-0.9,1.3-1.1,1.5c0.1,0.1,0.1,0.3,0,0.4
        c-0.1-0.1-0.1-0.3-0.2-0.4c-2.8,3.1-7.3,5.9-11.2,3.1c-1.9-1.3-3.1-3.4-4.2-5.5c-2.9-5.6-3.4-10.7-3.4-16.9
        c2.4-8.8,4.1-17.9,7.4-26.4c3.5-8.8,7.2-17.3,10.1-26.4c2.7-8.5,5.6-17,5.6-26c0-1.8-0.3-3.1-0.8-4.1c-0.6-0.9-1.4-1.4-2.6-1.4
        c-1.5,0-3,0.4-4.4,1.2c-1.4,0.8-2.6,2.1-3.8,3.7c-4.2,7.8-8.3,15.8-11.9,23.9c-1.9,4.2-3.6,8.5-5.2,12.9c-1.4,3.8-2.1,8-4.3,11.4
        c0,1.4-0.2,2.5-0.6,3.4c-0.4,0.9-1.1,1.5-1.9,1.9c-1.9,0.9-3.5,1.6-4.7,2.2c-1.2,0.6-2,1.1-2.5,1.4c-3.2,2.8-5.7,4.9-7.5,6.5
        c-7.5,6.3-14.4,13.9-21.1,21.1c-1,1-2,2.1-3.1,2.9c-1.6,1.2-3.6,1.9-5.3,2.9c-3.6,2-5.3,4.9-7.7,7.9c0,0,0,0.1,0,0.1
        c-0.7,0.6-1.4,1-2.1,1.4c-0.7,0.4-1.3,0.6-1.6,0.8c-3.4,2-7.8,3.4-11.7,3.5c-5.2,0.1-10.5-2.4-10.5-8.1c0-0.8,0.2-1.5,0.5-2.2
        c0.3-0.7,0.7-1.3,1.2-1.7c5.5-5.4,9.8-10.1,13.1-14.3c3.2-4.2,5.3-7.8,6.2-11l0.9-3.2c0.5-1.6,0.8-2.7,1-3.5
        c0.2-0.5,0.3-0.7,0.3-0.7c-0.3-1.5-0.5-2.9-0.7-4.2c-0.8-3.1-1.8-6.7-5.1-7.9c-2.2-0.8-7.9-1.2-9.9,0.4c-0.9,0.7-1.7,1.3-2.6,1.8
        c-0.9,0.5-1.7,1.1-2.4,1.7c-6.7,5.5-12.1,15.3-15.4,23.3c-0.5,1.5-1,2.8-1.4,4.1c-0.4,1.3-0.7,2.3-0.9,3.3
        c-0.1,1.3-0.2,2.6-0.4,3.9c-0.2,1.3-0.4,2.6-0.6,3.9c-3.4,2.7-5.9,8.2-10,9.3c-0.7,0.2-1.4,0.3-1.9,0.3c-1.7,0-3.4-0.6-4.2-2.2
        c-0.5-1-0.7-2.1-0.8-3.2c-0.6-4.2-0.8-8.4-1.3-12.6c-0.1-1.1-0.3-1.9-0.5-2.4c-0.4-0.9-1.1-1.5-2.1-1.9c-1-0.4-2.4-0.6-4.1-0.6
        c-1.9,0-3.7,0.8-5.2,2.3c-1.6,1.6-3,3.9-4.2,7.1c-0.5,0.7-1.1,1.5-1.7,2.2c-0.6,0.7-1.2,1.4-1.6,1.9c-1.3,1.8-2.5,3.6-3.7,5.5
        c-4.9,5.8-8.9,10.7-15.4,14.6c-0.7,0.2-1.2-0.6-1.5-2.4c-2-10,0.6-19.9,3.6-29.4c0.7-2.3,1.4-4.6,1.9-6.9c0.6-1.4,1.1-2.7,1.6-4.1
        c0.3-0.9,0.5-1.7,0.7-2.4c0.2-0.7,0.3-1.3,0.3-1.7c0-1.2-0.3-2.1-0.8-2.7c-0.5-0.6-1.3-0.9-2.3-0.9c-0.5,0-1.5,0.3-3,0.8
        c-1.5,0.5-3.5,1.4-6.1,2.7c-1.6,2-3.1,4.1-4.5,6.3c-5.5,8.3-12,16.3-18.6,23.8c-1.4,1.6-2.7,2.9-3.8,3.8c0,0.4-0.1,0.7-0.2,1
        c-0.2,0.3-0.4,0.5-0.6,0.7c1.1,2.2,1.9,4,2.6,5.5c0.7,1.5,1.1,2.7,1.4,3.7c0.8-1,1.4-1.8,1.9-2.5c0.5-0.7,0.8-1.3,1-1.7l5.6-5.8
        l0.6-0.3c0.5,0,0.8,0.5,1,1.5c0.2,1,0.4,2.4,0.5,4.4c-0.1,0.4-0.1,1.6,0.1,3.5c0.2,1.9,0.6,4.6,1.2,8c0.5,3.6,1.7,6.3,3.6,8.1
        c1.8,1.8,4.3,2.7,7.3,2.7c11.6,0,17.6-13,24.4-20.3c0.9-0.9,1.7-1.8,2.4-2.8c0.8-0.9,1.4-1.7,2-2.4c0.7,0.8,1.2,1.6,1.6,2.4
        c0.4,0.8,0.7,1.6,0.8,2.4c1,3.4,2.5,5.9,4.7,7.6c2.1,1.7,4.8,2.6,8.1,2.6c1.3,0,3.2-0.6,5.7-1.8c2.5-1.2,5.8-3,9.8-5.4
        c0.8-1,1.5-1.7,2.2-2.2c0.7-0.5,1.3-0.7,1.8-0.7c0.7,0,1.3,0.3,1.8,1c0.5,0.7,1.1,1.8,1.7,3.2c0.7,1.8,1.4,3.3,2.1,4.6
        c2.5,5,8.2,7.3,13.6,7.2c2.8,0,5-1,7.6-1.7c3.2-0.9,6-1.2,8.9-3c3.1-1.9,6.5-4.7,10.3-8.4l0.6,1.6c0,1.3-0.6,3.4-1.7,6.1
        c-1.1,2.7-1.7,4.9-1.7,6.4c0,3.3,0.8,5.7,2.4,7.3c1.6,1.6,4,2.3,7.3,2.3c6.5,0,12.1-6.9,16.2-11.1c3.5-3.6,6.8-7.4,9.8-11.3
        c2.8-3.7,4.7-8.2,7.9-11.5c1-1,1.8-1.7,2.6-2.3c0.3-0.3,0.6-0.8,1.1-1.5c1.1,1.5,1.9,2.8,2.4,4.1c0.2,0.7,0.4,1.4,0.6,2.2
        c2.5,10.1,8,18.2,19.3,18.2c2.2,0,4.1-0.3,5.7-0.8c1.6-0.6,2.9-1.5,3.9-2.7c1.8-2.1,3.2-3.7,4.3-4.9c1.1-1.2,1.8-1.8,2.1-2
        c0.1,0,0.1,0,0.1,0c0,0.5-0.1,1.2-0.2,2.1c-1.5,1.5-2.7,3.1-3.4,4.7c-0.8,1.6-1.1,3.3-1.1,5.1c0,8.7,7.5,11.3,14.6,7.5
        c5.3-2.8,10-6.4,14.3-10.5c1.6-1.5,3.5-3.5,5.8-5.8c1.7-1.4,3.2-2.6,4.5-3.6s2.4-1.8,3.2-2.5c0.5-0.6,1-1.1,1.4-1.4
        c0.4-0.4,0.8-0.7,1.1-1c0.5,0.7,0.9,1.3,1,1.9c0.2,0.6,0.2,1.2,0.2,1.8c0.4,5,1.7,8.7,4.1,11.1c2.3,2.4,5.6,3.7,9.9,3.7
        c1.8,0,3.7-0.4,5.5-1.1c1.8-0.8,3.8-1.9,5.7-3.4c1.7-1.3,3.2-2.7,4.7-4.2s3-2.9,4.5-4.3C419.1,147.9,418.7,146.6,418,145.1z
         M229.1,122.6c-0.2-0.2-0.2-0.4-0.2-0.8c0-1.8,1.2-4.6,3.7-8.4c2.4-3.8,4.4-5.7,5.8-5.7c0.5,0,0.8,0.2,1,0.5
        c0.2,0.4,0.3,0.8,0.3,1.4c0,0.9-0.2,1.9-0.6,2.8c-0.4,0.9-1,1.9-1.8,2.8c-0.7,0.7-1.3,1.5-2,2.2c-0.7,0.8-1.4,1.5-2.1,2.1
        c-0.4,0.7-0.8,1.4-1.3,2.1c-0.5,0.8-1.1,1.1-1.8,1.1C229.6,122.9,229.2,122.8,229.1,122.6z M303.3,120.8c-2,3.8-5,8.4-9.1,13.8
        c-4,5.1-7.4,9.1-10.3,11.9c-2.9,2.9-5.3,4.6-7.3,5.2c-0.5-0.5-0.8-0.9-0.8-1.3c0.8-2,1.6-3.7,2.3-5.1c2.1-3.5,3.9-6.5,5.4-8.9
        c1.5-2.4,2.6-4.1,3.5-5.1c3-3.4,5.3-6.2,6.9-8.5c1.7-2.3,2.7-3.9,3.2-5c2-1.6,3.7-3,5.2-4.4c1.5-1.3,2.7-2.5,3.7-3.5
        c0.3,0.7,0.4,1.2,0.4,1.5C306.3,113.9,305.3,117,303.3,120.8z"/>
    <path class="st2" d="M868.8,144.8c-0.7-1.5-1.4-3.1-2.2-4.9c-0.3,0.2-1.2,0.9-2.5,2c-1.3,1.1-3.1,2.7-5.5,4.9c-2,1.8-3.6,3.1-4.8,4
        c-1.2,0.9-2,1.3-2.5,1.3c-0.5-0.3-0.9-0.5-1-0.8c0.8-2.6,1.5-4.9,2-6.7c0.6-1.8,1.1-3.4,1.6-4.7c2.8-9,5.2-17.9,6.5-27.3
        c0.6-4.2,2-10.4-1.5-13.7c-1.5-1.4-3.7-2.1-6.7-2.1c-0.7,0-1.5,0.1-2.2,0.3c-0.8,0.2-1.6,0.5-2.4,0.9c-2.6,2.3-4.9,4.5-7,6.7
        c-2.1,2.1-3.9,4.1-5.6,5.9c-1.5,1.5-2.7,2.6-3.8,3.6c-6.4,5.5-11.4,12.2-18.4,17.2c-3.7,2.6-5.7,5.2-8.5,8.5c0,0,0,0.1,0.1,0.1
        c-0.7,0.6-1.4,1.1-1.9,1.4c-0.6,0.3-1.1,0.5-1.6,0.5c-0.5,0-1-0.2-1.3-0.5c-0.3-0.4-0.6-1-0.9-1.8c0.7-0.6,1.4-1.6,2.1-2.9
        c4.3-7.4,6.1-20,0.2-27.2c-2.4-2.9-6-4.4-10.9-4.4c-0.5,0-1.5,0.3-3.2,0.8c-1.7,0.5-3.9,1.4-6.8,2.5l-0.6-0.9
        c0.7-1.5,1.4-3,2.1-4.6c-0.1-0.7-0.5-1.2-1.2-1.5c-0.8-0.4-1.9-0.5-3.3-0.5c-1.3,0-2.5,0.3-3.7,0.8c-4.9,2.3-8.1,7.2-11.9,10.7
        c-4.8,4.4-8.9,9.3-13.7,13.7c-1.9,1.8-3.3,3.2-4.3,4.3c-4.1,2.8-7.2,5.2-10.4,9c-6.3,7.6-21.2,13.7-28.6,4.2
        c-2.5-3.3-3.8-8.1-3.8-14.5c0-1.9,4.2-6.8,5.3-8.5c1.7-2.7,3.5-5.3,5.2-8c3.6-5.6,7-11.4,10.2-17.3c3.4-6.5,6.5-13.1,9.1-20
        c3-7.9,5.2-16.1,6.7-24.5c0.9-5.2,3.6-14.9-0.7-19.4c-1.4-1.5-4-2.2-7.9-2.2c-1.9,0-4.1,1.3-6.5,4c-2.4,2.6-5.2,6.6-8.3,11.8
        c-4.2,7.1-8.1,14.5-10.7,22.4c-0.9,2-1.8,3.9-2.5,5.5c-4.2,9.2-7.3,18.8-9.2,28.8c-0.4,2-0.7,4-1.1,6c-0.6,3.6-1.3,7.2-1.9,10.8
        c-0.6,3.4-0.1,6.2-0.4,9.4c0,0.3-0.2,0.6-0.4,0.8l-6.5,5.7c-1,1.1-1.8,2.2-2.4,3.1c-3,4.8-7.9,8.6-12,12.4c-2.7,2.5-4.8,4-6.2,4.7
        l-0.7-0.9c1.4-4.1,2.7-7.8,3.9-11.2c1.2-3.4,2.4-6.3,3.5-8.8c1.3-3.9,2.4-7.3,3.4-10.2c0.9-2.9,1.6-5.3,2.1-7.3
        c0.1-0.4,0.1-0.8,0.2-1.2c0.1-0.4,0.1-0.9,0.1-1.3c0-1.1-0.4-2-1.1-2.5c-0.8-0.6-1.9-0.8-3.4-0.8c-2.2,0-4.1,0.3-5.7,1
        c-1.6,0.7-2.8,1.6-3.6,2.8c-9.5,10.3-19.9,21.4-31.3,29.7c-1.7,1.2-3.2,2.2-4.4,3l-0.5,0.1c-0.4,0-0.7-0.1-1-0.4
        c-0.3-0.3-0.4-0.7-0.4-1.4c0-3,1-7.3,3-13.1c2-5.7,3-9.9,3-12.5c0-1.7-0.4-3-1.3-3.8c-0.9-0.8-2.1-1.2-3.7-1.2
        c-4,0-6.3,2.9-8.9,5.5c-3.3,3.3-6.7,6.5-10.1,9.6c-7.1,6.5-14.6,13-22.3,18.8c-2.5,1.9-3.9,2.9-4.3,2.9c-0.7,0-1.2-0.3-1.5-0.8
        c-0.3-0.5-0.5-1.3-0.5-2.4c0-1.2,0.3-3.5,0.8-6.9c0.6-3.4,1.4-7.9,2.4-13.5c1.7-6.9,3.3-12.9,4.7-18c1.4-5.1,2.6-9.3,3.8-12.6
        c0.3-1.3,0.6-2.4,0.8-3.3c0.2-1,0.4-1.8,0.5-2.4l6.7-1.4c0.8-0.1,1.4-1.2,1.7-3.3c0.4-2.1,0.5-5.2,0.5-9.2c0-2-1.6-3-2.2-4.8
        c-0.7-2.2,0.3-4.3,1.1-6.4c0.9-2.5,1.3-4.5,1.3-6c0-1.9-0.4-3.4-1.3-4.4c-0.9-1-2.1-1.5-3.7-1.5c-3,0-5.8,3.1-8.4,9.3
        c-1.3,3-4.1,10.8-8.6,9.4c-0.6-0.2-1.1-0.5-1.6-0.6c-0.8-0.1-1.6,0.1-2.3,0.3c-7,1.6-15.3-0.4-22.5-0.3c-2.4,0-3.8,1.1-4.6,3.3
        c-0.9,2.2-1.3,5.5-1.3,9.7c0,0.6,0.2,1.1,0.6,1.5c5.1,5.1,16.4,2.8,22.9,2.8c0.5,0,1.1-0.1,2-0.3c0.9-0.2,1.5-0.3,1.9-0.3
        c0.5,0,0.8,0.1,1,0.3c0.2,0.2,0.3,0.5,0.3,0.9c-0.8,1.8-1.5,3.3-2.2,4.5c-0.7,1.2-1.3,2.1-1.8,2.9c-4.4,7.9-8.8,14.8-13.2,20.9
        c-4.5,6-9,11.2-13.7,15.6c-0.9,1.1-1.6,2-2.2,2.8c-0.6,0.8-1.1,1.5-1.5,2l-0.4,0.8c-0.2,0.2-0.4,0.4-0.7,0.6
        c-0.2,0.2-0.5,0.2-0.9,0.2c-1.1,0-1.8-0.1-2.3-0.3c-0.5-0.2-0.7-1.1-0.7-2.7c0-2.6-0.1-4.9-0.2-6.7c-0.1-1.8-0.4-3.4-0.7-4.7
        c-0.3-1.6-1-3.2-1.9-5c-4.1-7.7-11.3-14.1-17.1-20.7c-7-7.9-16.8-18-16.8-29.2c0-2.8,1.5-6,4.4-9.8c2.9-3.7,7.3-7.9,13.1-12.6
        c0.5-0.3,0.9-0.6,1.3-0.8c0.4-0.2,0.8-0.3,1.1-0.3l0.9,0.6c0.1,1.1-1.4,2.8-4.4,4.9c-3,2.1-4.5,4.1-4.5,5.9c0,1.1,0.3,1.9,0.8,2.4
        c0.5,0.5,1.3,0.8,2.2,0.8c1.9,0,5.3-1.6,10-4.7c4.8-3.1,11-7.8,18.8-14c0.7-0.6,1.3-1.8,1.7-3.5c0.4-1.7,0.6-4,0.6-6.8
        c0-2.5-0.5-4.4-1.6-5.7c-1.1-1.3-2.7-2-4.9-2c-1.1,0-2.8,0.4-5,1.2c-2.2,0.8-4.9,2-8.2,3.8c-8.2,3.1-16,7.6-23,12.9
        C492.5,48.3,484,54.4,481,62c-0.3,0.7-0.5,1.3-0.7,1.8c-0.2,0.5-0.4,1-0.6,1.4c-4.2,8.5-5.9,17.5-1.3,26.4c1.4,2.7,3.3,5.2,5.2,7.6
        c6.5,8.2,14.6,14.5,21.3,22.6c3.3,3.9,5.8,7.2,7.4,10c1.7,2.8,2.5,5,2.5,6.6c0,0.7-0.4,1.7-1.2,2.9c-0.8,1.2-2.1,2.5-3.8,4.1
        l-0.2,0.4l0.5,2.3c0.1,0.7-1.4,2.3-4.3,4.9c-2.9,2.6-4.8,3.9-5.7,3.9c-0.3,0-0.7-0.3-1.2-1c0-0.5,1.3-1.4,3.8-2.6
        c2.5-1.2,3.8-2.7,3.8-4.5c0-0.7-0.2-1.2-0.7-1.6c-0.5-0.4-1.2-0.6-2.3-0.6c-7.2,3.5-14.5,7-21.9,10.4c-3.7,1.7-6.5,3.4-8.4,5.3
        c-1.7,1.7-3.6,4.4-2.7,6.9c0.3,1,1.1,1.8,1.9,2.4c2.1,1.9,4.6,3.4,7.4,4.1c7.9,1.9,18.6-5,24.9-9.1c5.8-3.8,11.6-8.5,17.4-14.1
        c5-0.4,9.1-0.9,12.2-1.4c3-0.5,5-1.1,6-1.8c0,0,0,0,0-0.1c0,0,0,0,0.1,0l0,0c0.6-0.9,1.2-1.7,1.7-2.3c0.5-0.7,0.9-1.2,1.1-1.5
        c3.5-3.3,6.9-6.6,10.3-9.8c2.2-1.9,4.1-3.7,5.6-5.5c1.6-1.7,2.9-3.4,3.9-5l1-0.6c0.5,0.3,0.8,0.6,0.8,0.9c-0.8,1.8-1.6,3.5-2.3,5.1
        c-1.3,7.3-3.3,14.5-4.2,21.8c-0.6,5.2-1.9,14.1,1.8,18.5c1.4,1.7,3.6,2.6,6.5,2.6c1.3,0,2.7-0.4,4.3-1.1c4-2,7.1-6.4,10.1-9.6
        c4.4-4.8,10-8.4,14.4-13.2l0-0.1c1.8-1.5,3.4-2.8,4.7-3.8c1.3-1.1,2.3-1.8,3.1-2.4l0.4-0.2c0.7,0,1.1,0.5,1.4,1.5
        c1.3,4.5-0.1,10.5,0.1,15.1c0.1,1.8,1,3.6,2.5,4.6c3.2,2.3,8.9,0.9,12-1c7.3-4.3,12.8-11.9,18.9-17.7c1.7-1.6,3.2-3,4.6-4.2
        c1.4-1.2,2.7-2.1,3.9-2.7c0.3,0.8,0.4,1.4,0.4,1.8c0,0.4,0.1,0.8,0.2,1c-0.4,2.9-0.8,5.6-1.3,8.1c-0.5,2.5-1,4.7-1.7,6.6
        c-2.3,5.3-4.6,10.6-6.8,15.9c-1.6,3.8-4.3,6.3-7,9.3c-8,8.9-15.1,18.4-22.4,27.9c-3.1,4-9.2,10-9.2,15.4c0,1.3,0.3,2.2,1,2.8
        c0.7,0.6,1.7,0.9,3.2,0.9c3.9,0,7.9-1.5,12-4.4c4.1-2.9,8.4-7.4,13-13.4c1.3-1.9,3.4-5.1,6.4-9.6c2.9-4.6,6.6-10.5,11-17.7
        c3-4.8,7-9.7,12-14.6c5.1-4.9,11.1-9.9,18.2-14.9c1.3-0.9,2.3-1.7,3-2.4c0.8-0.8,1.4-1.4,1.9-1.9l0-0.1c1.6-1.5,3-2.8,4.1-4
        c1.2-1.2,2.2-2.2,3-3.1c0.6,0.6,1,1.1,1.2,1.6c0.2,0.5,0.4,1,0.5,1.6c1,5.9,2.7,10.4,5.1,13.4c4.7,5.8,15.8,6.1,22.5,4.5
        c4-1,7.6-3.2,10.7-5.9c1.7-1.4,3.2-2.9,4.8-4.5c0.4-0.4,3.9-3.1,3.9-3.5c0,0,0-0.1,0-0.1c0.6-0.6,1-1.2,1.2-1.7
        c0.3-0.5,0.5-0.9,0.7-1.2c2.3-1.8,4.1-3.3,5.4-4.3c1.3-1,2-1.5,2.4-1.5c0.5,0,0.9,0.1,1.2,0.4c0.3,0.3,0.4,0.7,0.4,1.1
        c0,0.5-0.4,2-1.1,4.6c-0.7,2.6-1.1,4.7-1.1,6.3c0,7.2,6.3,14.8,13.6,15.3c1.6,0.1,3.1-0.2,4.6-0.4c6.1-1.1,11.8-3.5,16.8-7.3
        c2.3-1.8,4.3-3.8,6-6c0.6,1.3,1.4,2.3,2.4,3.1c1,0.7,2.2,1.1,3.8,1.1c8.9,0,12.6-8.5,18.1-13.7c8.4-7.9,14.9-13.8,19.6-17.7
        c4.7-4,7.5-5.9,8.3-5.9c0.9,0,1.5,0.2,1.8,0.6c0.4,0.4,0.5,1.1,0.5,1.9c0,1.2-0.1,2.9-0.2,5.2c-0.3,5.2-0.9,10.8-2.3,15.9
        c-0.5,1.8-1,2.7-1.4,2.7c-0.5,0-0.9-0.5-1.3-1.5c-0.4-1-1.1-1.5-2.1-1.5c-1.9,0-3.6,0.6-5.2,1.9c-1.5,1.3-2.3,2.9-2.3,4.9
        c0,1.7,0.6,3.2,0.5,5c-0.3,3.7,0.2,7.4,1.3,11c0.6,1.9,1.7,7.6,3.8,8.1c1.2-0.4,2.3-0.8,3.4-1.1c9.8-3.4,17.1-12.5,25.6-18.1
        c1.8-1.2,3.4-2.2,4.8-3.2c0.6-0.8,1.2-1.5,1.9-2.2c0.7-0.7,1.5-1.3,2.3-1.8C870,147.7,869.4,146.3,868.8,144.8z M703.6,103.4
        c1.7-5.8,4-11,6.5-16.6c0.8-1.7,1.6-3.4,2-5.2c0.8-3.5,1.2-6.6,3.1-9.7c1.9-3.2,4.7-6.5,8.4-10.1l0.7,0.4c-0.3,1.3-0.5,2.5-0.8,3.8
        c-0.3,1.3-0.5,2.6-0.5,3.9c-0.2,4.5-2.9,9.7-4.6,13.8c-2.7,6.6-6.6,12.4-9.9,18.7c-1.1,2.2-2.1,3.8-3,5c-0.9,1.1-1.6,1.7-2.2,1.8
        l-0.6-0.8C702.6,107.3,702.9,105.7,703.6,103.4z M789.5,135.9c-0.9,2.3-2.2,4.4-3.6,6.3c-2.7,3.5-5.6,7.5-9.3,9.9
        c-2.5,1.7-5.3,2.5-8.4,2.5c-1.9,0-3.3-0.5-4.3-1.4c-3.9-3.9,0.5-12.9,2.2-17c1.3-3.1,2.9-2.9,5.5-4.2c0.8-0.4,1.6-1,2.3-1.8
        c1.2-1.8,2.2-3.4,3.2-5c0.6-0.9,1.2-1.7,1.8-2.3c0.6-0.6,1.1-1,1.4-1c4.9,0.6,9,1.2,9.9,7C790.7,131.2,790.3,133.6,789.5,135.9z"/>
    <path class="st3" d="M1065.8,70.8c-1.1-0.1-2.2-0.3-3.3-0.3c-2.7,0.1-3.3-1.2-3.3-3.2c-0.2-14.2,0-28.3-0.2-42.5
        c0-2.8-1.9-4.3-4.6-4.4c-3-0.1-5.3,1.6-5.3,4.5c0,6.8-0.2,13.9-0.2,20.8c0,6.9,0.8,13.8,0.4,20.6c0,0.7-0.1,4.5-1.5,4.5
        c-3.3,0-5.2-0.8-5.2-4.1c0.1-7.7-0.2-15.3-0.1-23c0.1-6.6-0.3-13.1-0.2-19.7c0-1.6-0.3-3-2.5-3.5c-1.6-0.3-3.1-0.2-4.4,0.7
        c-1.4,0.9-1.4,2.2-1.4,3.5c0.1,14.4,0,28.8,0,43.1c0,2.3-1.5,2.8-3.8,2.8c-2.1,0-4-0.2-4-2.5c-0.2-14.3-0.3-28.6-0.2-42.9
        c0-3.2-1.7-4.7-4.8-4.8c-3.3-0.2-5.7,1.6-5.7,4.7c0.1,7.3,0.4,14.6,0.5,21.8c0.1,6.8-0.4,13.6-0.2,20.4c0.1,2.3-1.3,2.9-3.6,2.9
        c-2.2,0-4.6,0.2-4.8-2.5c-0.9-13.4-0.4-27.2-0.4-40.7c0-4.7-1.5-6.7-4.9-6.6c-3.3,0.1-4.8,2.2-4.9,6.7c-0.2,12.5-1.1,25.2-0.5,37.7
        c0.1,1.1,0.2,4.8-0.9,6c-3.9-0.6-8.9,1.2-11.4-1.4c-2.4-2.4-0.7-6.5-0.7-9.8c0.1-12.5,0.2-25,0.4-37.5c0.1-7.9,2.2-9.7,11.3-9.7
        c38.4,0,76.7,0,115.1,0c7.8,0,10.5,2.2,10.5,8.7c0,15.1-0.2,30.3-0.3,45.4c0,1.8,0.6,4-2.9,4c-2,0-3.5-0.4-3.6-2.4
        c0-1.3-0.1-2.6-0.1-3.9c-0.2-10.3-0.3-20.5-0.5-30.8c0-2.2-0.1-4.5-0.2-6.7c-0.3-4.5-1.8-6.3-5.5-6.3c-3.6,0-5,1.8-5,6.5
        c0,13.3,0,26.5,0.1,39.8c0,2.3-0.2,4-3.8,3.9c-2.8-0.1-4-0.9-3.9-3.3c0.4-12.9-0.3-25.8-0.4-38.7c0-1.3,0.1-2.6-0.1-3.9
        c-0.3-2.7-2.1-4.2-5-4.2c-3.2,0-5.4,1.5-5.4,4.4c0,15,0.5,30,0.3,45c-7,0.4-7,0.4-7.1-5.2c-0.2-9.8-0.6-19.6-0.7-29.4
        c-0.1-3.3-0.2-6.5-0.2-9.8c0-3.2-1.8-5-4.6-5c-2.8-0.1-4.7,1.7-4.7,4.9c-0.1,13.7,0.5,27.5,0,41.2
        C1067.7,68.2,1068.2,70,1065.8,70.8z"/>
</g>
<g id="Capa_2">
</g>
</svg>
